<mxfile host="app.diagrams.net" modified="2024-02-16T15:50:16.021Z" agent="Mozilla/5.0 (Macintosh; Intel Mac OS X 10_15_7) AppleWebKit/537.36 (KHTML, like Gecko) Chrome/121.0.0.0 Safari/537.36" etag="-_7Az6SMRE9NhpJaPxPn" version="23.1.1" type="github">
  <diagram id="prtHgNgQTEPvFCAcTncT" name="Page-1">
    <mxGraphModel dx="1195" dy="634" grid="1" gridSize="10" guides="1" tooltips="1" connect="1" arrows="1" fold="1" page="1" pageScale="1" pageWidth="827" pageHeight="1169" math="0" shadow="0">
      <root>
        <mxCell id="0" />
        <mxCell id="1" parent="0" />
        <mxCell id="uyO0AxVfbgZJURIhpRdT-1" value="贷前-收单" style="swimlane;childLayout=stackLayout;resizeParent=1;resizeParentMax=0;startSize=20;html=1;labelBackgroundColor=none;fillColor=#B2C9AB;strokeColor=#6666FF;fontColor=#46495D;" vertex="1" parent="1">
          <mxGeometry x="160.00000000000045" y="220" width="1590" height="1800" as="geometry" />
        </mxCell>
        <mxCell id="uyO0AxVfbgZJURIhpRdT-6" value="流量渠道" style="swimlane;startSize=20;html=1;labelBackgroundColor=none;fillColor=#B2C9AB;strokeColor=#6666FF;fontColor=#46495D;" vertex="1" parent="uyO0AxVfbgZJURIhpRdT-1">
          <mxGeometry y="20" width="180" height="1780" as="geometry" />
        </mxCell>
        <mxCell id="uyO0AxVfbgZJURIhpRdT-7" value="分期乐" style="rounded=1;whiteSpace=wrap;html=1;labelBackgroundColor=none;strokeColor=#6666FF;align=center;verticalAlign=middle;fontFamily=Helvetica;fontSize=12;fontColor=#46495D;startSize=20;fillColor=#B2C9AB;" vertex="1" parent="uyO0AxVfbgZJURIhpRdT-6">
          <mxGeometry x="29.999999999999545" y="40" width="120" height="60" as="geometry" />
        </mxCell>
        <mxCell id="uyO0AxVfbgZJURIhpRdT-8" value="拍拍贷" style="rounded=1;whiteSpace=wrap;html=1;labelBackgroundColor=none;strokeColor=#6666FF;align=center;verticalAlign=middle;fontFamily=Helvetica;fontSize=12;fontColor=#46495D;startSize=20;fillColor=#B2C9AB;" vertex="1" parent="uyO0AxVfbgZJURIhpRdT-6">
          <mxGeometry x="29.999999999999545" y="120" width="120" height="60" as="geometry" />
        </mxCell>
        <mxCell id="uyO0AxVfbgZJURIhpRdT-9" value="洋钱罐" style="rounded=1;whiteSpace=wrap;html=1;labelBackgroundColor=none;strokeColor=#6666FF;align=center;verticalAlign=middle;fontFamily=Helvetica;fontSize=12;fontColor=#46495D;startSize=20;fillColor=#B2C9AB;" vertex="1" parent="uyO0AxVfbgZJURIhpRdT-6">
          <mxGeometry x="29.999999999999545" y="200" width="120" height="60" as="geometry" />
        </mxCell>
        <mxCell id="uyO0AxVfbgZJURIhpRdT-10" value="……" style="rounded=1;whiteSpace=wrap;html=1;labelBackgroundColor=none;strokeColor=#6666FF;align=center;verticalAlign=middle;fontFamily=Helvetica;fontSize=12;fontColor=#46495D;startSize=20;fillColor=#B2C9AB;" vertex="1" parent="uyO0AxVfbgZJURIhpRdT-6">
          <mxGeometry x="29.999999999999545" y="285" width="120" height="60" as="geometry" />
        </mxCell>
        <mxCell id="uyO0AxVfbgZJURIhpRdT-2" value="xyf-api-gateway" style="swimlane;startSize=20;html=1;labelBackgroundColor=none;fillColor=#B2C9AB;strokeColor=#6666FF;fontColor=#46495D;" vertex="1" parent="uyO0AxVfbgZJURIhpRdT-1">
          <mxGeometry x="180" y="20" width="200" height="1780" as="geometry" />
        </mxCell>
        <mxCell id="uyO0AxVfbgZJURIhpRdT-19" style="edgeStyle=orthogonalEdgeStyle;shape=connector;curved=0;rounded=1;orthogonalLoop=1;jettySize=auto;html=1;entryX=0.5;entryY=0;entryDx=0;entryDy=0;labelBackgroundColor=default;strokeColor=#788AA3;align=center;verticalAlign=middle;fontFamily=Helvetica;fontSize=12;fontColor=#46495D;endArrow=classic;startSize=20;fillColor=#B2C9AB;" edge="1" parent="uyO0AxVfbgZJURIhpRdT-2" source="uyO0AxVfbgZJURIhpRdT-5" target="uyO0AxVfbgZJURIhpRdT-18">
          <mxGeometry relative="1" as="geometry" />
        </mxCell>
        <mxCell id="uyO0AxVfbgZJURIhpRdT-5" value="请求进件接口" style="rounded=1;whiteSpace=wrap;html=1;labelBackgroundColor=none;strokeColor=#6666FF;align=center;verticalAlign=middle;fontFamily=Helvetica;fontSize=12;fontColor=#46495D;startSize=20;fillColor=#B2C9AB;" vertex="1" parent="uyO0AxVfbgZJURIhpRdT-2">
          <mxGeometry x="39.999999999999545" y="40" width="120" height="60" as="geometry" />
        </mxCell>
        <mxCell id="uyO0AxVfbgZJURIhpRdT-23" value="" style="edgeStyle=orthogonalEdgeStyle;shape=connector;curved=0;rounded=1;orthogonalLoop=1;jettySize=auto;html=1;labelBackgroundColor=default;strokeColor=#788AA3;align=center;verticalAlign=middle;fontFamily=Helvetica;fontSize=12;fontColor=#46495D;endArrow=classic;startSize=20;fillColor=#B2C9AB;" edge="1" parent="uyO0AxVfbgZJURIhpRdT-2" source="uyO0AxVfbgZJURIhpRdT-18" target="uyO0AxVfbgZJURIhpRdT-22">
          <mxGeometry relative="1" as="geometry" />
        </mxCell>
        <mxCell id="uyO0AxVfbgZJURIhpRdT-18" value="请求收单" style="rounded=1;whiteSpace=wrap;html=1;labelBackgroundColor=none;strokeColor=#6666FF;align=center;verticalAlign=middle;fontFamily=Helvetica;fontSize=12;fontColor=#46495D;startSize=20;fillColor=#B2C9AB;" vertex="1" parent="uyO0AxVfbgZJURIhpRdT-2">
          <mxGeometry x="39.999999999999545" y="140" width="120" height="60" as="geometry" />
        </mxCell>
        <mxCell id="uyO0AxVfbgZJURIhpRdT-25" style="edgeStyle=orthogonalEdgeStyle;shape=connector;curved=0;rounded=1;orthogonalLoop=1;jettySize=auto;html=1;entryX=0.5;entryY=0;entryDx=0;entryDy=0;labelBackgroundColor=default;strokeColor=#788AA3;align=center;verticalAlign=middle;fontFamily=Helvetica;fontSize=12;fontColor=#46495D;endArrow=classic;startSize=20;fillColor=#B2C9AB;" edge="1" parent="uyO0AxVfbgZJURIhpRdT-2" source="uyO0AxVfbgZJURIhpRdT-22" target="uyO0AxVfbgZJURIhpRdT-24">
          <mxGeometry relative="1" as="geometry" />
        </mxCell>
        <mxCell id="uyO0AxVfbgZJURIhpRdT-22" value="请求上报风险挑战项" style="rounded=1;whiteSpace=wrap;html=1;labelBackgroundColor=none;strokeColor=#6666FF;align=center;verticalAlign=middle;fontFamily=Helvetica;fontSize=12;fontColor=#46495D;startSize=20;fillColor=#B2C9AB;" vertex="1" parent="uyO0AxVfbgZJURIhpRdT-2">
          <mxGeometry x="39.999999999999545" y="250" width="120" height="60" as="geometry" />
        </mxCell>
        <mxCell id="uyO0AxVfbgZJURIhpRdT-24" value="请求激活" style="rounded=1;whiteSpace=wrap;html=1;labelBackgroundColor=none;strokeColor=#6666FF;align=center;verticalAlign=middle;fontFamily=Helvetica;fontSize=12;fontColor=#46495D;startSize=20;fillColor=#B2C9AB;" vertex="1" parent="uyO0AxVfbgZJURIhpRdT-2">
          <mxGeometry x="39.999999999999545" y="360" width="120" height="60" as="geometry" />
        </mxCell>
        <mxCell id="uyO0AxVfbgZJURIhpRdT-3" value="openplatformcore" style="swimlane;startSize=20;html=1;labelBackgroundColor=none;fillColor=#B2C9AB;strokeColor=#6666FF;fontColor=#46495D;" vertex="1" parent="uyO0AxVfbgZJURIhpRdT-1">
          <mxGeometry x="380" y="20" width="460" height="1780" as="geometry" />
        </mxCell>
        <mxCell id="uyO0AxVfbgZJURIhpRdT-27" value="" style="edgeStyle=orthogonalEdgeStyle;shape=connector;curved=0;rounded=1;orthogonalLoop=1;jettySize=auto;html=1;labelBackgroundColor=default;strokeColor=#788AA3;align=center;verticalAlign=middle;fontFamily=Helvetica;fontSize=12;fontColor=#46495D;endArrow=classic;startSize=20;fillColor=#B2C9AB;" edge="1" parent="uyO0AxVfbgZJURIhpRdT-3" source="uyO0AxVfbgZJURIhpRdT-20" target="uyO0AxVfbgZJURIhpRdT-26">
          <mxGeometry relative="1" as="geometry" />
        </mxCell>
        <mxCell id="uyO0AxVfbgZJURIhpRdT-20" value="收单接口" style="rounded=1;whiteSpace=wrap;html=1;labelBackgroundColor=none;strokeColor=#6666FF;align=center;verticalAlign=middle;fontFamily=Helvetica;fontSize=12;fontColor=#46495D;startSize=20;fillColor=#B2C9AB;" vertex="1" parent="uyO0AxVfbgZJURIhpRdT-3">
          <mxGeometry x="114.99999999999955" y="140" width="120" height="60" as="geometry" />
        </mxCell>
        <mxCell id="uyO0AxVfbgZJURIhpRdT-29" value="否" style="edgeStyle=orthogonalEdgeStyle;shape=connector;curved=0;rounded=1;orthogonalLoop=1;jettySize=auto;html=1;labelBackgroundColor=default;strokeColor=#788AA3;align=center;verticalAlign=middle;fontFamily=Helvetica;fontSize=12;fontColor=#46495D;endArrow=classic;startSize=20;fillColor=#B2C9AB;" edge="1" parent="uyO0AxVfbgZJURIhpRdT-3" source="uyO0AxVfbgZJURIhpRdT-26" target="uyO0AxVfbgZJURIhpRdT-28">
          <mxGeometry relative="1" as="geometry" />
        </mxCell>
        <mxCell id="uyO0AxVfbgZJURIhpRdT-31" value="是" style="edgeStyle=orthogonalEdgeStyle;shape=connector;curved=0;rounded=1;orthogonalLoop=1;jettySize=auto;html=1;labelBackgroundColor=default;strokeColor=#788AA3;align=center;verticalAlign=middle;fontFamily=Helvetica;fontSize=12;fontColor=#46495D;endArrow=classic;startSize=20;fillColor=#B2C9AB;" edge="1" parent="uyO0AxVfbgZJURIhpRdT-3" source="uyO0AxVfbgZJURIhpRdT-26" target="uyO0AxVfbgZJURIhpRdT-30">
          <mxGeometry relative="1" as="geometry" />
        </mxCell>
        <mxCell id="uyO0AxVfbgZJURIhpRdT-26" value="是否允许渠道重复进件" style="rhombus;whiteSpace=wrap;html=1;fillColor=#B2C9AB;strokeColor=#6666FF;fontColor=#46495D;rounded=1;labelBackgroundColor=none;startSize=20;" vertex="1" parent="uyO0AxVfbgZJURIhpRdT-3">
          <mxGeometry x="102.5" y="240" width="145" height="80" as="geometry" />
        </mxCell>
        <mxCell id="uyO0AxVfbgZJURIhpRdT-28" value="返回该平台设置不可重复进件" style="whiteSpace=wrap;fillColor=#B2C9AB;strokeColor=#6666FF;fontColor=#46495D;rounded=1;labelBackgroundColor=none;startSize=20;" vertex="1" parent="uyO0AxVfbgZJURIhpRdT-3">
          <mxGeometry x="320" y="250" width="120" height="60" as="geometry" />
        </mxCell>
        <mxCell id="uyO0AxVfbgZJURIhpRdT-33" value="" style="edgeStyle=orthogonalEdgeStyle;shape=connector;curved=0;rounded=1;orthogonalLoop=1;jettySize=auto;html=1;labelBackgroundColor=default;strokeColor=#788AA3;align=center;verticalAlign=middle;fontFamily=Helvetica;fontSize=12;fontColor=#46495D;endArrow=classic;startSize=20;fillColor=#B2C9AB;" edge="1" parent="uyO0AxVfbgZJURIhpRdT-3" source="uyO0AxVfbgZJURIhpRdT-30" target="uyO0AxVfbgZJURIhpRdT-32">
          <mxGeometry relative="1" as="geometry" />
        </mxCell>
        <mxCell id="uyO0AxVfbgZJURIhpRdT-30" value="新增cash_out_apply表数据" style="whiteSpace=wrap;html=1;fillColor=#B2C9AB;strokeColor=#6666FF;fontColor=#46495D;rounded=1;labelBackgroundColor=none;startSize=20;" vertex="1" parent="uyO0AxVfbgZJURIhpRdT-3">
          <mxGeometry x="115" y="370" width="120" height="60" as="geometry" />
        </mxCell>
        <mxCell id="uyO0AxVfbgZJURIhpRdT-35" value="" style="edgeStyle=orthogonalEdgeStyle;shape=connector;curved=0;rounded=1;orthogonalLoop=1;jettySize=auto;html=1;labelBackgroundColor=default;strokeColor=#788AA3;align=center;verticalAlign=middle;fontFamily=Helvetica;fontSize=12;fontColor=#46495D;endArrow=classic;startSize=20;fillColor=#B2C9AB;" edge="1" parent="uyO0AxVfbgZJURIhpRdT-3" source="uyO0AxVfbgZJURIhpRdT-32" target="uyO0AxVfbgZJURIhpRdT-34">
          <mxGeometry relative="1" as="geometry" />
        </mxCell>
        <mxCell id="uyO0AxVfbgZJURIhpRdT-32" value="进行授信" style="whiteSpace=wrap;html=1;fillColor=#B2C9AB;strokeColor=#6666FF;fontColor=#46495D;rounded=1;labelBackgroundColor=none;startSize=20;" vertex="1" parent="uyO0AxVfbgZJURIhpRdT-3">
          <mxGeometry x="115" y="480" width="120" height="60" as="geometry" />
        </mxCell>
        <mxCell id="uyO0AxVfbgZJURIhpRdT-42" value="" style="edgeStyle=orthogonalEdgeStyle;shape=connector;curved=0;rounded=1;orthogonalLoop=1;jettySize=auto;html=1;labelBackgroundColor=default;strokeColor=#788AA3;align=center;verticalAlign=middle;fontFamily=Helvetica;fontSize=12;fontColor=#46495D;endArrow=classic;startSize=20;fillColor=#B2C9AB;" edge="1" parent="uyO0AxVfbgZJURIhpRdT-3" source="uyO0AxVfbgZJURIhpRdT-34" target="uyO0AxVfbgZJURIhpRdT-41">
          <mxGeometry relative="1" as="geometry" />
        </mxCell>
        <mxCell id="uyO0AxVfbgZJURIhpRdT-34" value="请求查询风控产品信息" style="whiteSpace=wrap;html=1;fillColor=#B2C9AB;strokeColor=#6666FF;fontColor=#46495D;rounded=1;labelBackgroundColor=none;startSize=20;" vertex="1" parent="uyO0AxVfbgZJURIhpRdT-3">
          <mxGeometry x="115" y="600" width="120" height="60" as="geometry" />
        </mxCell>
        <mxCell id="uyO0AxVfbgZJURIhpRdT-45" value="否" style="edgeStyle=orthogonalEdgeStyle;shape=connector;curved=0;rounded=1;orthogonalLoop=1;jettySize=auto;html=1;labelBackgroundColor=default;strokeColor=#788AA3;align=center;verticalAlign=middle;fontFamily=Helvetica;fontSize=12;fontColor=#46495D;endArrow=classic;startSize=20;fillColor=#B2C9AB;" edge="1" parent="uyO0AxVfbgZJURIhpRdT-3" source="uyO0AxVfbgZJURIhpRdT-41" target="uyO0AxVfbgZJURIhpRdT-44">
          <mxGeometry relative="1" as="geometry" />
        </mxCell>
        <mxCell id="uyO0AxVfbgZJURIhpRdT-86" style="edgeStyle=orthogonalEdgeStyle;shape=connector;curved=0;rounded=1;orthogonalLoop=1;jettySize=auto;html=1;labelBackgroundColor=default;strokeColor=#788AA3;align=center;verticalAlign=middle;fontFamily=Helvetica;fontSize=12;fontColor=#46495D;endArrow=classic;startSize=20;fillColor=#B2C9AB;exitX=0.963;exitY=0.507;exitDx=0;exitDy=0;exitPerimeter=0;" edge="1" parent="uyO0AxVfbgZJURIhpRdT-3" source="uyO0AxVfbgZJURIhpRdT-41">
          <mxGeometry relative="1" as="geometry">
            <mxPoint x="175" y="1518.8333333333333" as="targetPoint" />
            <mxPoint x="262.5" y="748" as="sourcePoint" />
            <Array as="points">
              <mxPoint x="262" y="761" />
              <mxPoint x="360" y="760" />
              <mxPoint x="360" y="1519" />
            </Array>
          </mxGeometry>
        </mxCell>
        <mxCell id="uyO0AxVfbgZJURIhpRdT-41" value="同一身份证号+mobile+姓名是否有激活成功的记录" style="rhombus;whiteSpace=wrap;html=1;fillColor=#B2C9AB;strokeColor=#6666FF;fontColor=#46495D;rounded=1;labelBackgroundColor=none;startSize=20;" vertex="1" parent="uyO0AxVfbgZJURIhpRdT-3">
          <mxGeometry x="87.5" y="720" width="175" height="80" as="geometry" />
        </mxCell>
        <mxCell id="uyO0AxVfbgZJURIhpRdT-50" value="" style="edgeStyle=orthogonalEdgeStyle;shape=connector;curved=0;rounded=1;orthogonalLoop=1;jettySize=auto;html=1;labelBackgroundColor=default;strokeColor=#788AA3;align=center;verticalAlign=middle;fontFamily=Helvetica;fontSize=12;fontColor=#46495D;endArrow=classic;startSize=20;fillColor=#B2C9AB;" edge="1" parent="uyO0AxVfbgZJURIhpRdT-3" source="uyO0AxVfbgZJURIhpRdT-44" target="uyO0AxVfbgZJURIhpRdT-49">
          <mxGeometry relative="1" as="geometry" />
        </mxCell>
        <mxCell id="uyO0AxVfbgZJURIhpRdT-44" value="二一致校验" style="whiteSpace=wrap;html=1;fillColor=#B2C9AB;strokeColor=#6666FF;fontColor=#46495D;rounded=1;labelBackgroundColor=none;startSize=20;" vertex="1" parent="uyO0AxVfbgZJURIhpRdT-3">
          <mxGeometry x="115" y="860" width="120" height="60" as="geometry" />
        </mxCell>
        <mxCell id="uyO0AxVfbgZJURIhpRdT-55" value="三一致认证通过" style="edgeStyle=orthogonalEdgeStyle;shape=connector;curved=0;rounded=1;orthogonalLoop=1;jettySize=auto;html=1;labelBackgroundColor=default;strokeColor=#788AA3;align=center;verticalAlign=middle;fontFamily=Helvetica;fontSize=12;fontColor=#46495D;endArrow=classic;startSize=20;fillColor=#B2C9AB;" edge="1" parent="uyO0AxVfbgZJURIhpRdT-3" source="uyO0AxVfbgZJURIhpRdT-49" target="uyO0AxVfbgZJURIhpRdT-54">
          <mxGeometry relative="1" as="geometry" />
        </mxCell>
        <mxCell id="uyO0AxVfbgZJURIhpRdT-49" value="三一致校验" style="whiteSpace=wrap;html=1;fillColor=#B2C9AB;strokeColor=#6666FF;fontColor=#46495D;rounded=1;labelBackgroundColor=none;startSize=20;" vertex="1" parent="uyO0AxVfbgZJURIhpRdT-3">
          <mxGeometry x="115" y="980" width="120" height="60" as="geometry" />
        </mxCell>
        <mxCell id="uyO0AxVfbgZJURIhpRdT-68" value="" style="edgeStyle=orthogonalEdgeStyle;shape=connector;curved=0;rounded=1;orthogonalLoop=1;jettySize=auto;html=1;labelBackgroundColor=default;strokeColor=#788AA3;align=center;verticalAlign=middle;fontFamily=Helvetica;fontSize=12;fontColor=#46495D;endArrow=classic;startSize=20;fillColor=#B2C9AB;" edge="1" parent="uyO0AxVfbgZJURIhpRdT-3" source="uyO0AxVfbgZJURIhpRdT-54" target="uyO0AxVfbgZJURIhpRdT-67">
          <mxGeometry relative="1" as="geometry" />
        </mxCell>
        <mxCell id="uyO0AxVfbgZJURIhpRdT-54" value="请求绑定Person" style="whiteSpace=wrap;html=1;fillColor=#B2C9AB;strokeColor=#6666FF;fontColor=#46495D;rounded=1;labelBackgroundColor=none;startSize=20;" vertex="1" parent="uyO0AxVfbgZJURIhpRdT-3">
          <mxGeometry x="115" y="1100" width="120" height="60" as="geometry" />
        </mxCell>
        <mxCell id="uyO0AxVfbgZJURIhpRdT-70" value="" style="edgeStyle=orthogonalEdgeStyle;shape=connector;curved=0;rounded=1;orthogonalLoop=1;jettySize=auto;html=1;labelBackgroundColor=default;strokeColor=#788AA3;align=center;verticalAlign=middle;fontFamily=Helvetica;fontSize=12;fontColor=#46495D;endArrow=classic;startSize=20;fillColor=#B2C9AB;" edge="1" parent="uyO0AxVfbgZJURIhpRdT-3" source="uyO0AxVfbgZJURIhpRdT-67" target="uyO0AxVfbgZJURIhpRdT-69">
          <mxGeometry relative="1" as="geometry" />
        </mxCell>
        <mxCell id="uyO0AxVfbgZJURIhpRdT-67" value="存储二一致校验记录" style="whiteSpace=wrap;html=1;fillColor=#B2C9AB;strokeColor=#6666FF;fontColor=#46495D;rounded=1;labelBackgroundColor=none;startSize=20;" vertex="1" parent="uyO0AxVfbgZJURIhpRdT-3">
          <mxGeometry x="115" y="1210" width="120" height="60" as="geometry" />
        </mxCell>
        <mxCell id="uyO0AxVfbgZJURIhpRdT-72" value="" style="edgeStyle=orthogonalEdgeStyle;shape=connector;curved=0;rounded=1;orthogonalLoop=1;jettySize=auto;html=1;labelBackgroundColor=default;strokeColor=#788AA3;align=center;verticalAlign=middle;fontFamily=Helvetica;fontSize=12;fontColor=#46495D;endArrow=classic;startSize=20;fillColor=#B2C9AB;" edge="1" parent="uyO0AxVfbgZJURIhpRdT-3" source="uyO0AxVfbgZJURIhpRdT-69" target="uyO0AxVfbgZJURIhpRdT-71">
          <mxGeometry relative="1" as="geometry" />
        </mxCell>
        <mxCell id="uyO0AxVfbgZJURIhpRdT-69" value="存储二一致校验记录" style="whiteSpace=wrap;html=1;fillColor=#B2C9AB;strokeColor=#6666FF;fontColor=#46495D;rounded=1;labelBackgroundColor=none;startSize=20;" vertex="1" parent="uyO0AxVfbgZJURIhpRdT-3">
          <mxGeometry x="115" y="1320" width="120" height="60" as="geometry" />
        </mxCell>
        <mxCell id="uyO0AxVfbgZJURIhpRdT-71" value="Application2表写入预授信记录数据" style="whiteSpace=wrap;fillColor=#B2C9AB;strokeColor=#6666FF;fontColor=#46495D;rounded=1;labelBackgroundColor=none;startSize=20;" vertex="1" parent="uyO0AxVfbgZJURIhpRdT-3">
          <mxGeometry x="115" y="1430" width="120" height="60" as="geometry" />
        </mxCell>
        <mxCell id="uyO0AxVfbgZJURIhpRdT-4" value="风控服务" style="swimlane;startSize=20;html=1;labelBackgroundColor=none;fillColor=#B2C9AB;strokeColor=#6666FF;fontColor=#46495D;rounded=0;" vertex="1" parent="uyO0AxVfbgZJURIhpRdT-1">
          <mxGeometry x="840" y="20" width="250" height="1780" as="geometry" />
        </mxCell>
        <mxCell id="uyO0AxVfbgZJURIhpRdT-36" value="风控产品信息查询接口" style="whiteSpace=wrap;html=1;fillColor=#B2C9AB;strokeColor=#6666FF;fontColor=#46495D;rounded=1;labelBackgroundColor=none;startSize=20;" vertex="1" parent="uyO0AxVfbgZJURIhpRdT-4">
          <mxGeometry x="65" y="600" width="120" height="60" as="geometry" />
        </mxCell>
        <mxCell id="uyO0AxVfbgZJURIhpRdT-46" value="二一致校验接口" style="whiteSpace=wrap;html=1;fillColor=#B2C9AB;strokeColor=#6666FF;fontColor=#46495D;rounded=1;labelBackgroundColor=none;startSize=20;" vertex="1" parent="uyO0AxVfbgZJURIhpRdT-4">
          <mxGeometry x="65" y="860" width="120" height="60" as="geometry" />
        </mxCell>
        <mxCell id="uyO0AxVfbgZJURIhpRdT-51" value="三一致校验接口" style="whiteSpace=wrap;html=1;fillColor=#B2C9AB;strokeColor=#6666FF;fontColor=#46495D;rounded=1;labelBackgroundColor=none;startSize=20;" vertex="1" parent="uyO0AxVfbgZJURIhpRdT-4">
          <mxGeometry x="65" y="980" width="120" height="60" as="geometry" />
        </mxCell>
        <mxCell id="uyO0AxVfbgZJURIhpRdT-56" value="CIS" style="swimlane;startSize=20;html=1;labelBackgroundColor=none;fillColor=#B2C9AB;strokeColor=#6666FF;fontColor=#46495D;rounded=0;" vertex="1" parent="uyO0AxVfbgZJURIhpRdT-1">
          <mxGeometry x="1090" y="20" width="250" height="1780" as="geometry" />
        </mxCell>
        <mxCell id="uyO0AxVfbgZJURIhpRdT-61" value="" style="edgeStyle=orthogonalEdgeStyle;shape=connector;curved=0;rounded=1;orthogonalLoop=1;jettySize=auto;html=1;labelBackgroundColor=default;strokeColor=#788AA3;align=center;verticalAlign=middle;fontFamily=Helvetica;fontSize=12;fontColor=#46495D;endArrow=classic;startSize=20;fillColor=#B2C9AB;" edge="1" parent="uyO0AxVfbgZJURIhpRdT-56" source="uyO0AxVfbgZJURIhpRdT-57" target="uyO0AxVfbgZJURIhpRdT-60">
          <mxGeometry relative="1" as="geometry" />
        </mxCell>
        <mxCell id="uyO0AxVfbgZJURIhpRdT-57" value="绑定Person接口" style="whiteSpace=wrap;html=1;fillColor=#B2C9AB;strokeColor=#6666FF;fontColor=#46495D;rounded=1;labelBackgroundColor=none;startSize=20;" vertex="1" parent="uyO0AxVfbgZJURIhpRdT-56">
          <mxGeometry x="80" y="1100" width="120" height="60" as="geometry" />
        </mxCell>
        <mxCell id="uyO0AxVfbgZJURIhpRdT-66" style="edgeStyle=orthogonalEdgeStyle;shape=connector;curved=0;rounded=1;orthogonalLoop=1;jettySize=auto;html=1;entryX=0.5;entryY=1;entryDx=0;entryDy=0;labelBackgroundColor=default;strokeColor=#788AA3;align=center;verticalAlign=middle;fontFamily=Helvetica;fontSize=12;fontColor=#46495D;endArrow=classic;startSize=20;fillColor=#B2C9AB;" edge="1" parent="uyO0AxVfbgZJURIhpRdT-56" source="uyO0AxVfbgZJURIhpRdT-60" target="uyO0AxVfbgZJURIhpRdT-65">
          <mxGeometry relative="1" as="geometry" />
        </mxCell>
        <mxCell id="uyO0AxVfbgZJURIhpRdT-60" value="会双写到Person和credit_user表吗？" style="whiteSpace=wrap;html=1;fillColor=#f8cecc;strokeColor=#b85450;rounded=1;labelBackgroundColor=none;startSize=20;" vertex="1" parent="uyO0AxVfbgZJURIhpRdT-56">
          <mxGeometry x="80" y="960" width="120" height="60" as="geometry" />
        </mxCell>
        <mxCell id="uyO0AxVfbgZJURIhpRdT-65" value="老逻辑" style="rounded=0;whiteSpace=wrap;html=1;labelBackgroundColor=none;strokeColor=#b85450;align=center;verticalAlign=top;fontFamily=Helvetica;fontSize=12;startSize=20;fillColor=#f8cecc;horizontal=1;" vertex="1" parent="uyO0AxVfbgZJURIhpRdT-56">
          <mxGeometry x="50" y="770" width="180" height="140" as="geometry" />
        </mxCell>
        <mxCell id="uyO0AxVfbgZJURIhpRdT-63" value="&#xa;1、新建Person数据&#xa;2、请求接口绑定Person：user-edit/bind-person-by-credit-user-id&#xa;3、请求接口设置用户身份证MD5信息：user-edit/mask-md5" style="text;strokeColor=none;fillColor=none;align=left;verticalAlign=middle;whiteSpace=wrap;rounded=0;fontSize=12;fontFamily=Helvetica;fontColor=#46495D;" vertex="1" parent="uyO0AxVfbgZJURIhpRdT-56">
          <mxGeometry x="63.75" y="790" width="152.5" height="100" as="geometry" />
        </mxCell>
        <mxCell id="uyO0AxVfbgZJURIhpRdT-73" value="Application2表数据写入接口" style="whiteSpace=wrap;html=1;fillColor=#B2C9AB;strokeColor=#6666FF;fontColor=#46495D;rounded=1;labelBackgroundColor=none;startSize=20;" vertex="1" parent="uyO0AxVfbgZJURIhpRdT-56">
          <mxGeometry x="80" y="1430" width="120" height="60" as="geometry" />
        </mxCell>
        <mxCell id="uyO0AxVfbgZJURIhpRdT-75" value="合同系统" style="swimlane;startSize=20;html=1;labelBackgroundColor=none;fillColor=#B2C9AB;strokeColor=#6666FF;fontColor=#46495D;rounded=0;" vertex="1" parent="uyO0AxVfbgZJURIhpRdT-1">
          <mxGeometry x="1340" y="20" width="250" height="1780" as="geometry" />
        </mxCell>
        <mxCell id="uyO0AxVfbgZJURIhpRdT-78" value="生成个人信息授权书接口" style="whiteSpace=wrap;fillColor=#B2C9AB;strokeColor=#6666FF;fontColor=#46495D;rounded=1;labelBackgroundColor=none;startSize=20;" vertex="1" parent="uyO0AxVfbgZJURIhpRdT-75">
          <mxGeometry x="70" y="1550" width="120" height="60" as="geometry" />
        </mxCell>
        <mxCell id="uyO0AxVfbgZJURIhpRdT-79" value="" style="edgeStyle=orthogonalEdgeStyle;shape=connector;curved=0;rounded=1;orthogonalLoop=1;jettySize=auto;html=1;labelBackgroundColor=default;strokeColor=#788AA3;align=center;verticalAlign=middle;fontFamily=Helvetica;fontSize=12;fontColor=#46495D;endArrow=classic;startSize=20;fillColor=#B2C9AB;" edge="1" parent="uyO0AxVfbgZJURIhpRdT-75" source="uyO0AxVfbgZJURIhpRdT-76" target="uyO0AxVfbgZJURIhpRdT-78">
          <mxGeometry relative="1" as="geometry" />
        </mxCell>
        <mxCell id="uyO0AxVfbgZJURIhpRdT-80" value="cash/generate-person-contract" style="edgeLabel;align=center;verticalAlign=middle;resizable=0;points=[];fontSize=12;fontFamily=Helvetica;fontColor=#46495D;" vertex="1" connectable="0" parent="uyO0AxVfbgZJURIhpRdT-79">
          <mxGeometry x="-0.109" y="3" relative="1" as="geometry">
            <mxPoint x="21" as="offset" />
          </mxGeometry>
        </mxCell>
        <mxCell id="uyO0AxVfbgZJURIhpRdT-76" value="生成个人信息授权书" style="whiteSpace=wrap;fillColor=#B2C9AB;strokeColor=#6666FF;fontColor=#46495D;rounded=1;labelBackgroundColor=none;startSize=20;" vertex="1" parent="uyO0AxVfbgZJURIhpRdT-75">
          <mxGeometry x="-845" y="1550" width="120" height="60" as="geometry" />
        </mxCell>
        <mxCell id="uyO0AxVfbgZJURIhpRdT-81" value="生成委托扣款协议" style="whiteSpace=wrap;fillColor=#B2C9AB;strokeColor=#6666FF;fontColor=#46495D;rounded=1;labelBackgroundColor=none;startSize=20;" vertex="1" parent="uyO0AxVfbgZJURIhpRdT-75">
          <mxGeometry x="-845" y="1670" width="120" height="60" as="geometry" />
        </mxCell>
        <mxCell id="uyO0AxVfbgZJURIhpRdT-82" value="" style="edgeStyle=orthogonalEdgeStyle;shape=connector;curved=0;rounded=1;orthogonalLoop=1;jettySize=auto;html=1;labelBackgroundColor=default;strokeColor=#788AA3;align=center;verticalAlign=middle;fontFamily=Helvetica;fontSize=12;fontColor=#46495D;endArrow=classic;startSize=20;fillColor=#B2C9AB;" edge="1" parent="uyO0AxVfbgZJURIhpRdT-75" source="uyO0AxVfbgZJURIhpRdT-76" target="uyO0AxVfbgZJURIhpRdT-81">
          <mxGeometry relative="1" as="geometry" />
        </mxCell>
        <mxCell id="uyO0AxVfbgZJURIhpRdT-83" value="生成委托扣款协议接口" style="whiteSpace=wrap;fillColor=#B2C9AB;strokeColor=#6666FF;fontColor=#46495D;rounded=1;labelBackgroundColor=none;startSize=20;" vertex="1" parent="uyO0AxVfbgZJURIhpRdT-75">
          <mxGeometry x="70" y="1670" width="120" height="60" as="geometry" />
        </mxCell>
        <mxCell id="uyO0AxVfbgZJURIhpRdT-84" value="" style="edgeStyle=orthogonalEdgeStyle;shape=connector;curved=0;rounded=1;orthogonalLoop=1;jettySize=auto;html=1;labelBackgroundColor=default;strokeColor=#788AA3;align=center;verticalAlign=middle;fontFamily=Helvetica;fontSize=12;fontColor=#46495D;endArrow=classic;startSize=20;fillColor=#B2C9AB;" edge="1" parent="uyO0AxVfbgZJURIhpRdT-75" source="uyO0AxVfbgZJURIhpRdT-81" target="uyO0AxVfbgZJURIhpRdT-83">
          <mxGeometry relative="1" as="geometry" />
        </mxCell>
        <mxCell id="uyO0AxVfbgZJURIhpRdT-85" value="cash/generate-entrust-deductions-contract" style="edgeLabel;align=center;verticalAlign=middle;resizable=0;points=[];fontSize=12;fontFamily=Helvetica;fontColor=#46495D;" vertex="1" connectable="0" parent="uyO0AxVfbgZJURIhpRdT-84">
          <mxGeometry x="-0.1614" y="-3" relative="1" as="geometry">
            <mxPoint x="42" y="-3" as="offset" />
          </mxGeometry>
        </mxCell>
        <mxCell id="uyO0AxVfbgZJURIhpRdT-11" style="edgeStyle=orthogonalEdgeStyle;rounded=0;orthogonalLoop=1;jettySize=auto;html=1;entryX=0;entryY=0.5;entryDx=0;entryDy=0;strokeColor=#788AA3;fontFamily=Helvetica;fontSize=12;fontColor=#46495D;startSize=20;fillColor=#B2C9AB;" edge="1" parent="uyO0AxVfbgZJURIhpRdT-1" source="uyO0AxVfbgZJURIhpRdT-7" target="uyO0AxVfbgZJURIhpRdT-5">
          <mxGeometry relative="1" as="geometry" />
        </mxCell>
        <mxCell id="uyO0AxVfbgZJURIhpRdT-15" style="edgeStyle=orthogonalEdgeStyle;shape=connector;curved=0;rounded=1;orthogonalLoop=1;jettySize=auto;html=1;entryX=0;entryY=0.5;entryDx=0;entryDy=0;labelBackgroundColor=default;strokeColor=#788AA3;align=center;verticalAlign=middle;fontFamily=Helvetica;fontSize=12;fontColor=#46495D;endArrow=classic;startSize=20;fillColor=#B2C9AB;" edge="1" parent="uyO0AxVfbgZJURIhpRdT-1" source="uyO0AxVfbgZJURIhpRdT-8" target="uyO0AxVfbgZJURIhpRdT-5">
          <mxGeometry relative="1" as="geometry">
            <Array as="points">
              <mxPoint x="160" y="170" />
              <mxPoint x="160" y="90" />
            </Array>
          </mxGeometry>
        </mxCell>
        <mxCell id="uyO0AxVfbgZJURIhpRdT-16" style="edgeStyle=orthogonalEdgeStyle;shape=connector;curved=0;rounded=1;orthogonalLoop=1;jettySize=auto;html=1;entryX=0;entryY=0.5;entryDx=0;entryDy=0;labelBackgroundColor=default;strokeColor=#788AA3;align=center;verticalAlign=middle;fontFamily=Helvetica;fontSize=12;fontColor=#46495D;endArrow=classic;startSize=20;fillColor=#B2C9AB;" edge="1" parent="uyO0AxVfbgZJURIhpRdT-1" source="uyO0AxVfbgZJURIhpRdT-9" target="uyO0AxVfbgZJURIhpRdT-5">
          <mxGeometry relative="1" as="geometry">
            <Array as="points">
              <mxPoint x="160" y="250" />
              <mxPoint x="160" y="90" />
            </Array>
          </mxGeometry>
        </mxCell>
        <mxCell id="uyO0AxVfbgZJURIhpRdT-17" style="edgeStyle=orthogonalEdgeStyle;shape=connector;curved=0;rounded=1;orthogonalLoop=1;jettySize=auto;html=1;entryX=0;entryY=0.5;entryDx=0;entryDy=0;labelBackgroundColor=default;strokeColor=#788AA3;align=center;verticalAlign=middle;fontFamily=Helvetica;fontSize=12;fontColor=#46495D;endArrow=classic;startSize=20;fillColor=#B2C9AB;" edge="1" parent="uyO0AxVfbgZJURIhpRdT-1" source="uyO0AxVfbgZJURIhpRdT-10" target="uyO0AxVfbgZJURIhpRdT-5">
          <mxGeometry relative="1" as="geometry">
            <Array as="points">
              <mxPoint x="160" y="335" />
              <mxPoint x="160" y="90" />
            </Array>
          </mxGeometry>
        </mxCell>
        <mxCell id="uyO0AxVfbgZJURIhpRdT-21" style="edgeStyle=orthogonalEdgeStyle;shape=connector;curved=0;rounded=1;orthogonalLoop=1;jettySize=auto;html=1;entryX=0;entryY=0.5;entryDx=0;entryDy=0;labelBackgroundColor=default;strokeColor=#788AA3;align=center;verticalAlign=middle;fontFamily=Helvetica;fontSize=12;fontColor=#46495D;endArrow=classic;startSize=20;fillColor=#B2C9AB;" edge="1" parent="uyO0AxVfbgZJURIhpRdT-1" source="uyO0AxVfbgZJURIhpRdT-18" target="uyO0AxVfbgZJURIhpRdT-20">
          <mxGeometry relative="1" as="geometry" />
        </mxCell>
        <mxCell id="uyO0AxVfbgZJURIhpRdT-37" style="edgeStyle=orthogonalEdgeStyle;shape=connector;curved=0;rounded=1;orthogonalLoop=1;jettySize=auto;html=1;entryX=0;entryY=0.5;entryDx=0;entryDy=0;labelBackgroundColor=default;strokeColor=#788AA3;align=center;verticalAlign=middle;fontFamily=Helvetica;fontSize=12;fontColor=#46495D;endArrow=classic;startSize=20;fillColor=#B2C9AB;" edge="1" parent="uyO0AxVfbgZJURIhpRdT-1" source="uyO0AxVfbgZJURIhpRdT-34" target="uyO0AxVfbgZJURIhpRdT-36">
          <mxGeometry relative="1" as="geometry" />
        </mxCell>
        <mxCell id="uyO0AxVfbgZJURIhpRdT-38" value="strategyTree/user_product_query" style="edgeLabel;align=center;verticalAlign=middle;resizable=0;points=[];fontSize=12;fontFamily=Helvetica;fontColor=#46495D;" vertex="1" connectable="0" parent="uyO0AxVfbgZJURIhpRdT-37">
          <mxGeometry x="0.0862" y="-2" relative="1" as="geometry">
            <mxPoint y="-3" as="offset" />
          </mxGeometry>
        </mxCell>
        <mxCell id="uyO0AxVfbgZJURIhpRdT-47" style="edgeStyle=orthogonalEdgeStyle;shape=connector;curved=0;rounded=1;orthogonalLoop=1;jettySize=auto;html=1;entryX=0;entryY=0.5;entryDx=0;entryDy=0;labelBackgroundColor=default;strokeColor=#788AA3;align=center;verticalAlign=middle;fontFamily=Helvetica;fontSize=12;fontColor=#46495D;endArrow=classic;startSize=20;fillColor=#B2C9AB;" edge="1" parent="uyO0AxVfbgZJURIhpRdT-1" source="uyO0AxVfbgZJURIhpRdT-44" target="uyO0AxVfbgZJURIhpRdT-46">
          <mxGeometry relative="1" as="geometry" />
        </mxCell>
        <mxCell id="uyO0AxVfbgZJURIhpRdT-48" value="realname/idcard-check" style="edgeLabel;html=1;align=center;verticalAlign=middle;resizable=0;points=[];fontSize=12;fontFamily=Helvetica;fontColor=#46495D;" vertex="1" connectable="0" parent="uyO0AxVfbgZJURIhpRdT-47">
          <mxGeometry x="-0.0115" y="-2" relative="1" as="geometry">
            <mxPoint as="offset" />
          </mxGeometry>
        </mxCell>
        <mxCell id="uyO0AxVfbgZJURIhpRdT-52" value="" style="edgeStyle=orthogonalEdgeStyle;shape=connector;curved=0;rounded=1;orthogonalLoop=1;jettySize=auto;html=1;labelBackgroundColor=default;strokeColor=#788AA3;align=center;verticalAlign=middle;fontFamily=Helvetica;fontSize=12;fontColor=#46495D;endArrow=classic;startSize=20;fillColor=#B2C9AB;" edge="1" parent="uyO0AxVfbgZJURIhpRdT-1" source="uyO0AxVfbgZJURIhpRdT-49" target="uyO0AxVfbgZJURIhpRdT-51">
          <mxGeometry relative="1" as="geometry" />
        </mxCell>
        <mxCell id="uyO0AxVfbgZJURIhpRdT-53" value="realname/mobile-check" style="edgeLabel;align=center;verticalAlign=middle;resizable=0;points=[];fontSize=12;fontFamily=Helvetica;fontColor=#46495D;" vertex="1" connectable="0" parent="uyO0AxVfbgZJURIhpRdT-52">
          <mxGeometry x="-0.1839" y="1" relative="1" as="geometry">
            <mxPoint x="27" as="offset" />
          </mxGeometry>
        </mxCell>
        <mxCell id="uyO0AxVfbgZJURIhpRdT-58" style="edgeStyle=orthogonalEdgeStyle;shape=connector;curved=0;rounded=1;orthogonalLoop=1;jettySize=auto;html=1;entryX=0;entryY=0.5;entryDx=0;entryDy=0;labelBackgroundColor=default;strokeColor=#788AA3;align=center;verticalAlign=middle;fontFamily=Helvetica;fontSize=12;fontColor=#46495D;endArrow=classic;startSize=20;fillColor=#B2C9AB;" edge="1" parent="uyO0AxVfbgZJURIhpRdT-1" source="uyO0AxVfbgZJURIhpRdT-54" target="uyO0AxVfbgZJURIhpRdT-57">
          <mxGeometry relative="1" as="geometry" />
        </mxCell>
        <mxCell id="uyO0AxVfbgZJURIhpRdT-59" value="bindUserAndCustomer" style="edgeLabel;html=1;align=center;verticalAlign=middle;resizable=0;points=[];fontSize=12;fontFamily=Helvetica;fontColor=#46495D;" vertex="1" connectable="0" parent="uyO0AxVfbgZJURIhpRdT-58">
          <mxGeometry x="-0.033" y="-3" relative="1" as="geometry">
            <mxPoint as="offset" />
          </mxGeometry>
        </mxCell>
        <mxCell id="uyO0AxVfbgZJURIhpRdT-74" style="edgeStyle=orthogonalEdgeStyle;shape=connector;curved=0;rounded=1;orthogonalLoop=1;jettySize=auto;html=1;entryX=0;entryY=0.5;entryDx=0;entryDy=0;labelBackgroundColor=default;strokeColor=#788AA3;align=center;verticalAlign=middle;fontFamily=Helvetica;fontSize=12;fontColor=#46495D;endArrow=classic;startSize=20;fillColor=#B2C9AB;" edge="1" parent="uyO0AxVfbgZJURIhpRdT-1" source="uyO0AxVfbgZJURIhpRdT-71" target="uyO0AxVfbgZJURIhpRdT-73">
          <mxGeometry relative="1" as="geometry" />
        </mxCell>
        <mxCell id="uyO0AxVfbgZJURIhpRdT-77" value="" style="edgeStyle=orthogonalEdgeStyle;shape=connector;curved=0;rounded=1;orthogonalLoop=1;jettySize=auto;html=1;labelBackgroundColor=default;strokeColor=#788AA3;align=center;verticalAlign=middle;fontFamily=Helvetica;fontSize=12;fontColor=#46495D;endArrow=classic;startSize=20;fillColor=#B2C9AB;" edge="1" parent="uyO0AxVfbgZJURIhpRdT-1" source="uyO0AxVfbgZJURIhpRdT-71" target="uyO0AxVfbgZJURIhpRdT-76">
          <mxGeometry relative="1" as="geometry" />
        </mxCell>
      </root>
    </mxGraphModel>
  </diagram>
</mxfile>
